<svg width="1991" height="1105" xmlns="http://www.w3.org/2000/svg" xmlns:xlink="http://www.w3.org/1999/xlink" xml:space="preserve" overflow="hidden"><defs><clipPath id="clip0"><rect x="1732" y="462" width="1991" height="1105"/></clipPath><clipPath id="clip1"><rect x="1732" y="463" width="1988" height="1101"/></clipPath><clipPath id="clip2"><rect x="1918" y="633" width="1755" height="626"/></clipPath><clipPath id="clip3"><rect x="1918" y="633" width="1755" height="626"/></clipPath><clipPath id="clip4"><rect x="1918" y="633" width="1755" height="626"/></clipPath><clipPath id="clip5"><rect x="1918" y="633" width="1755" height="626"/></clipPath><clipPath id="clip6"><rect x="1918" y="633" width="1755" height="626"/></clipPath><clipPath id="clip7"><rect x="1732" y="463" width="1988" height="1101"/></clipPath><clipPath id="clip8"><rect x="1732" y="463" width="1988" height="1101"/></clipPath><clipPath id="clip9"><rect x="1732" y="463" width="1988" height="1101"/></clipPath><clipPath id="clip10"><rect x="1732" y="463" width="1988" height="1101"/></clipPath><clipPath id="clip11"><rect x="1732" y="463" width="1988" height="1101"/></clipPath><clipPath id="clip12"><rect x="1732" y="463" width="1988" height="1101"/></clipPath><clipPath id="clip13"><rect x="1732" y="463" width="1988" height="1101"/></clipPath><clipPath id="clip14"><rect x="1732" y="463" width="1988" height="1101"/></clipPath><clipPath id="clip15"><rect x="1732" y="463" width="1988" height="1101"/></clipPath><clipPath id="clip16"><rect x="1732" y="463" width="1988" height="1101"/></clipPath><clipPath id="clip17"><rect x="1732" y="463" width="1988" height="1101"/></clipPath><clipPath id="clip18"><rect x="1732" y="463" width="1988" height="1101"/></clipPath><clipPath id="clip19"><rect x="1732" y="463" width="1988" height="1101"/></clipPath><clipPath id="clip20"><rect x="1732" y="463" width="1988" height="1101"/></clipPath><clipPath id="clip21"><rect x="1732" y="463" width="1988" height="1101"/></clipPath><clipPath id="clip22"><rect x="1732" y="463" width="1988" height="1101"/></clipPath><clipPath id="clip23"><rect x="1732" y="463" width="1988" height="1101"/></clipPath><clipPath id="clip24"><rect x="1732" y="463" width="1988" height="1101"/></clipPath><clipPath id="clip25"><rect x="1732" y="463" width="1988" height="1101"/></clipPath><clipPath id="clip26"><rect x="1732" y="463" width="1988" height="1101"/></clipPath><clipPath id="clip27"><rect x="1732" y="463" width="1988" height="1101"/></clipPath><clipPath id="clip28"><rect x="1732" y="463" width="1988" height="1101"/></clipPath><clipPath id="clip29"><rect x="1732" y="463" width="1988" height="1101"/></clipPath><clipPath id="clip30"><rect x="1732" y="463" width="1988" height="1101"/></clipPath><clipPath id="clip31"><rect x="1732" y="463" width="1988" height="1101"/></clipPath><clipPath id="clip32"><rect x="1732" y="463" width="1988" height="1101"/></clipPath><clipPath id="clip33"><rect x="1732" y="463" width="1988" height="1101"/></clipPath><clipPath id="clip34"><rect x="1732" y="463" width="1988" height="1101"/></clipPath></defs><g clip-path="url(#clip0)" transform="translate(-1732 -462)"><rect x="1733" y="463" width="1988" height="1102" fill="#FFFFFF"/><g clip-path="url(#clip1)"><path d="M1918.5 1167.54 3670.5 1167.54M1918.5 1078.54 3670.5 1078.54M1918.5 989.533 3670.5 989.533M1918.5 900.53 3670.5 900.53M1918.5 811.527 3670.5 811.527M1918.5 722.524 3670.5 722.524M1918.5 633.5 3670.5 633.5" stroke="#D9D9D9" stroke-width="3.4375" stroke-linejoin="round" stroke-miterlimit="10" fill="none"/></g><g clip-path="url(#clip2)"><path d="M1977.06 1237.04 2030.07 1237.04 2030.07 1256 1977.06 1256ZM2414.08 1230.04 2467.08 1230.04 2467.08 1256 2414.08 1256ZM2852.09 1230.04 2905.1 1230.04 2905.1 1256 2852.09 1256ZM3290.11 1232.04 3343.11 1232.04 3343.11 1256 3290.11 1256Z" fill="#4472C4"/></g><g clip-path="url(#clip3)"><path d="M2044.07 1211.04 2097.07 1211.04 2097.07 1256 2044.07 1256ZM2482.08 1146.04 2535.08 1146.04 2535.08 1256 2482.08 1256ZM2920.1 951.031 2973.1 951.031 2973.1 1256 2920.1 1256ZM3358.11 674.022 3410.11 674.022 3410.11 1256 3358.11 1256Z" fill="#ED7D31"/></g><g clip-path="url(#clip4)"><path d="M2111.07 1235.04 2164.07 1235.04 2164.07 1256 2111.07 1256ZM2549.08 1230.04 2602.09 1230.04 2602.09 1256 2549.08 1256ZM2987.1 1230.04 3040.1 1230.04 3040.1 1256 2987.1 1256ZM3425.11 1230.04 3478.11 1230.04 3478.11 1256 3425.11 1256Z" fill="#A5A5A5"/></g><g clip-path="url(#clip5)"><path d="M2178.07 1219.04 2231.07 1219.04 2231.07 1256 2178.07 1256ZM2616.09 1192.04 2669.09 1192.04 2669.09 1256 2616.09 1256ZM3054.1 1150.04 3107.1 1150.04 3107.1 1256 3054.1 1256ZM3492.11 1062.03 3545.12 1062.03 3545.12 1256 3492.11 1256Z" fill="#FFC000"/></g><g clip-path="url(#clip6)"><path d="M2246.07 1231.04 2299.08 1231.04 2299.08 1256 2246.07 1256ZM2683.09 1230.04 2736.09 1230.04 2736.09 1256 2683.09 1256ZM3121.1 1231.04 3174.1 1231.04 3174.1 1256 3121.1 1256ZM3559.12 1232.04 3612.12 1232.04 3612.12 1256 3559.12 1256Z" fill="#5B9BD5"/></g><g clip-path="url(#clip7)"><path d="M1918.5 1256.5 3670.5 1256.5" stroke="#D9D9D9" stroke-width="3.4375" stroke-linejoin="round" stroke-miterlimit="10" fill="none" fill-rule="evenodd"/></g><g clip-path="url(#clip8)"><text fill="#595959" font-family="Calibri,Calibri_MSFontService,sans-serif" font-weight="400" font-size="41" transform="matrix(1 0 0 1 1859.48 1268)">0</text></g><g clip-path="url(#clip9)"><text fill="#595959" font-family="Calibri,Calibri_MSFontService,sans-serif" font-weight="400" font-size="41" transform="matrix(1 0 0 1 1859.48 1179)">1</text></g><g clip-path="url(#clip10)"><text fill="#595959" font-family="Calibri,Calibri_MSFontService,sans-serif" font-weight="400" font-size="41" transform="matrix(1 0 0 1 1859.48 1090)">2</text></g><g clip-path="url(#clip11)"><text fill="#595959" font-family="Calibri,Calibri_MSFontService,sans-serif" font-weight="400" font-size="41" transform="matrix(1 0 0 1 1859.48 1001)">3</text></g><g clip-path="url(#clip12)"><text fill="#595959" font-family="Calibri,Calibri_MSFontService,sans-serif" font-weight="400" font-size="41" transform="matrix(1 0 0 1 1859.48 912)">4</text></g><g clip-path="url(#clip13)"><text fill="#595959" font-family="Calibri,Calibri_MSFontService,sans-serif" font-weight="400" font-size="41" transform="matrix(1 0 0 1 1859.48 823)">5</text></g><g clip-path="url(#clip14)"><text fill="#595959" font-family="Calibri,Calibri_MSFontService,sans-serif" font-weight="400" font-size="41" transform="matrix(1 0 0 1 1859.48 734)">6</text></g><g clip-path="url(#clip15)"><text fill="#595959" font-family="Calibri,Calibri_MSFontService,sans-serif" font-weight="400" font-size="41" transform="matrix(1 0 0 1 1859.48 645)">7</text></g><g clip-path="url(#clip16)"><text fill="#595959" font-family="Calibri,Calibri_MSFontService,sans-serif" font-weight="400" font-size="41" transform="matrix(1 0 0 1 2113.5 1322)">O0</text></g><g clip-path="url(#clip17)"><text fill="#595959" font-family="Calibri,Calibri_MSFontService,sans-serif" font-weight="400" font-size="41" transform="matrix(1 0 0 1 2551.42 1322)">O1</text></g><g clip-path="url(#clip18)"><text fill="#595959" font-family="Calibri,Calibri_MSFontService,sans-serif" font-weight="400" font-size="41" transform="matrix(1 0 0 1 2989.34 1322)">O2</text></g><g clip-path="url(#clip19)"><text fill="#595959" font-family="Calibri,Calibri_MSFontService,sans-serif" font-weight="400" font-size="41" transform="matrix(1 0 0 1 3427.26 1322)">O3</text></g><g clip-path="url(#clip20)"><text fill="#595959" font-family="Calibri,Calibri_MSFontService,sans-serif" font-weight="400" font-size="46" transform="matrix(6.12323e-17 -1 1 6.12323e-17 1833.79 1017)">GFLOPS</text></g><g clip-path="url(#clip21)"><text fill="#595959" font-family="Calibri,Calibri_MSFontService,sans-serif" font-weight="400" font-size="46" transform="matrix(1 0 0 1 2676.52 1391)">Optimierung</text></g><g clip-path="url(#clip22)"><text fill="#595959" font-family="Calibri,Calibri_MSFontService,sans-serif" font-weight="400" font-size="64" transform="matrix(1 0 0 1 2043.01 559)">OX </text></g><g clip-path="url(#clip23)"><text fill="#595959" font-family="Calibri,Calibri_MSFontService,sans-serif" font-weight="400" font-size="64" transform="matrix(1 0 0 1 2131.28 559)">-</text></g><g clip-path="url(#clip24)"><text fill="#595959" font-family="Calibri,Calibri_MSFontService,sans-serif" font-weight="400" font-size="64" transform="matrix(1 0 0 1 2165.43 559)">Compileroptimierungen GCC Matrixgröße=1024 </text></g><g clip-path="url(#clip25)"><rect x="1867" y="1487" width="23" height="23" fill="#4472C4"/></g><g clip-path="url(#clip26)"><text fill="#595959" font-family="Calibri,Calibri_MSFontService,sans-serif" font-weight="400" font-size="41" transform="matrix(1 0 0 1 1899.75 1510)">Baseline (ijk)</text></g><g clip-path="url(#clip27)"><rect x="2146" y="1487" width="23" height="23" fill="#ED7D31"/></g><g clip-path="url(#clip28)"><text fill="#595959" font-family="Calibri,Calibri_MSFontService,sans-serif" font-weight="400" font-size="41" transform="matrix(1 0 0 1 2178.31 1510)">Schleifenvertauschen (jki)</text></g><g clip-path="url(#clip29)"><rect x="2643" y="1487" width="23" height="23" fill="#A5A5A5"/></g><g clip-path="url(#clip30)"><text fill="#595959" font-family="Calibri,Calibri_MSFontService,sans-serif" font-weight="400" font-size="41" transform="matrix(1 0 0 1 2675.48 1510)">Unrolling (ijk)</text></g><g clip-path="url(#clip31)"><rect x="2936" y="1487" width="22" height="23" fill="#FFC000"/></g><g clip-path="url(#clip32)"><text fill="#595959" font-family="Calibri,Calibri_MSFontService,sans-serif" font-weight="400" font-size="41" transform="matrix(1 0 0 1 2967.81 1510)">Tiling (ijk)</text></g><g clip-path="url(#clip33)"><rect x="3164" y="1487" width="22" height="23" fill="#5B9BD5"/></g><g clip-path="url(#clip34)"><text fill="#595959" font-family="Calibri,Calibri_MSFontService,sans-serif" font-weight="400" font-size="41" transform="matrix(1 0 0 1 3195.95 1510)">Temporäre Variable (ijk)</text></g><rect x="1733.5" y="463.5" width="1988" height="1102" stroke="#D9D9D9" stroke-width="3.4375" stroke-linejoin="round" stroke-miterlimit="10" fill="none"/></g></svg>